<svg width="25" height="30" viewBox="0 0 25 30" fill="none" xmlns="http://www.w3.org/2000/svg">
<g clip-path="url(#clip0_21_271)">
<path d="M24.5182 4.95118C25.2539 4.1543 25.1367 2.97071 24.2513 2.3086C23.3659 1.64649 22.0507 1.75196 21.3151 2.54883L12.5 12.0703L3.68487 2.54883C2.94919 1.75196 1.63408 1.64649 0.748668 2.3086C-0.136748 2.97071 -0.253936 4.1543 0.481741 4.95118L9.78513 15L0.481741 25.0488C-0.253936 25.8457 -0.136748 27.0293 0.748668 27.6914C1.63408 28.3535 2.94919 28.2481 3.68487 27.4512L12.5 17.9297L21.3151 27.4512C22.0507 28.2481 23.3659 28.3535 24.2513 27.6914C25.1367 27.0293 25.2539 25.8457 24.5182 25.0488L15.2148 15L24.5182 4.95118Z" fill="#4D18E3"/>
</g>
<defs>
<clipPath id="clip0_21_271">
<rect width="25" height="30" fill="white"/>
</clipPath>
</defs>
</svg>
